<svg fill="currentColor" fill-rule="evenodd" height="1em" style="flex:none;line-height:1" viewBox="0 0 24 24" width="1em" xmlns="http://www.w3.org/2000/svg"><title>Qoder</title><path d="M12 1.5c-5.8 0-10.5 4.7-10.5 10.5S6.2 22.5 12 22.5c2.28 0 4.4-.72 6.13-1.95l3.4 2.6a1.35 1.35 0 0 0 1.94-.34 1.35 1.35 0 0 0-.25-1.8l-3.35-2.56A10.44 10.44 0 0 0 22.5 12C22.5 6.2 17.8 1.5 12 1.5Zm0 2.9a7.6 7.6 0 0 1 7.6 7.6c0 1.74-.57 3.34-1.54 4.63-.72-.15-1.47-.23-2.24-.23.58-1.28.9-2.72.9-4.23 0-4.42-2.56-7.95-5.72-8.74.33-.03.65-.03 1 0Zm-1.16.18c2.5.55 4.42 3.55 4.42 7.19 0 1.3-.25 2.53-.68 3.6-.84-.43-1.8-.67-2.81-.67-3.4 0-6.17 2.7-6.17 6.03 0 .24.01.47.04.7A7.58 7.58 0 0 1 4.4 12a7.6 7.6 0 0 1 6.44-7.42Zm.88 12.35c1.63 0 2.95 1.29 2.95 2.88S13.35 19.8 11.72 19.8s-2.95-1.3-2.95-2.89 1.32-2.88 2.95-2.88Z"/></svg>
